# xmcd
#
# Track frame offsets:
#	150
#	23416
#	41281
#	67578
#	91567
#	115563
#	132007
#	151037
#	168054
#	190596
#	210782
#	231735
#	250586
#	274669
#
# Disc length: 3874 seconds
#
# Revision: 0
# Processed by: cddbd v1.5.2PL0 Copyright (c) Steve Scherf et al.
# Submitted via: EasyCDDAExtractor 11.0.0.1
#
DISCID=8e0f200e
DTITLE=Jheena Lodwick - Vol. 2 - Feelings
DYEAR=2004
DGENRE=Vocal
TTITLE0=Feelings
TTITLE1=I Don't Know How To Love Him
TTITLE2=Imagine
TTITLE3=It's Too Late
TTITLE4=When Will I See You Again
TTITLE5=Just When I Needed You Most
TTITLE6=I'll Allways Love You
TTITLE7=Do That To Me One More Time
TTITLE8=Sometimes When We Touch
TTITLE9=I'll Never Fall In Love Again
TTITLE10=Close To You (Free Jazz Version)
TTITLE11=Promise Me
TTITLE12=Up Where We Belong
TTITLE13=Sumiyaki Coffee
EXTD=
EXTT0=
EXTT1=
EXTT2=
EXTT3=
EXTT4=
EXTT5=
EXTT6=
EXTT7=
EXTT8=
EXTT9=
EXTT10=
EXTT11=
EXTT12=
EXTT13=
PLAYORDER=
